# xmcd
#
# Track frame offsets:
#	150
#	18199
#	36167
#	56172
#	74175
#	94841
#	118514
#	141049
#	161622
#	179244
#	195200
#	217997
#	234082
#	250053
#	267183
#	285740
#	296804
#	313198
#	330640
#	344659
#
# Disc length: 4819 seconds
#
# Revision: 2
# Processed by: cddbd v1.4PL0 Copyright (c) Steve Scherf et al.
# Submitted via: audiograbber 1.82.01
#
DISCID=3712d114
DTITLE=Joe Cocker - Respect Yourself and bonus
DYEAR=2002
DGENRE=
TTITLE0=You can`t have my heart
TTITLE1=Love not war
TTITLE2=You took it so hard
TTITLE3=Never tear us apart
TTITLE4=This is your life
TTITLE5=Respect yourself
TTITLE6=I`m listening now
TTITLE7=Leave a light on
TTITLE8=It`s only love
TTITLE9=Every time it rains
TTITLE10=Midnight without you
TTITLE11=Civilized man
TTITLE12=Goes my baby
TTITLE13=Come on in
TTITLE14=Temped
TTITLE15=Long drag off a cigarette
TTITLE16=I love the night
TTITLE17=Crazy in love
TTITLE18=A girl like you
TTITLE19=Hold on (I feel our love is changing)
EXTD=
EXTT0=
EXTT1=
EXTT2=
EXTT3=
EXTT4=
EXTT5=
EXTT6=
EXTT7=
EXTT8=
EXTT9=
EXTT10=
EXTT11=
EXTT12=
EXTT13=
EXTT14=
EXTT15=
EXTT16=
EXTT17=
EXTT18=
EXTT19=
PLAYORDER=
